<svg width="129" height="148" viewBox="0 0 129 148" fill="none" xmlns="http://www.w3.org/2000/svg">
<path d="M64.387 74L126.741 110L64.387 146L2.0332 110L64.387 74Z" fill="#FCCF03" stroke="#212120" stroke-width="3" stroke-linejoin="bevel"/>
<path d="M126.741 38L64.3872 2V74L126.741 110V38Z" fill="#FCCF03" stroke="#212120" stroke-width="3" stroke-linejoin="round"/>
<path d="M64.3867 74L126.741 38V110L64.3867 146V74Z" fill="#FCCF03" stroke="#212120" stroke-width="3" stroke-linejoin="round"/>
<path d="M64.387 2L2.0332 38V110L64.387 74V2Z" fill="#FCCF03" stroke="#212120" stroke-width="3" stroke-linejoin="round"/>
<path d="M2.0332 38L64.387 74V146L2.0332 110V38Z" fill="#FCCF03" stroke="#212120" stroke-width="3" stroke-linejoin="round"/>
<g clip-path="url(#clip0_165:415)">
<rect width="72" height="24" transform="matrix(-0.866025 -0.5 -0.866025 0.5 85.1714 62)" fill="#FCCF03"/>
<path d="M60.4209 57.5525L30.521 40.2898L26.7835 42.4476L56.6834 59.7103L60.4209 57.5525Z" fill="#212120"/>
</g>
<rect width="72" height="24" transform="matrix(-0.866025 -0.5 -0.866025 0.5 85.1714 62)" stroke="#212120" stroke-width="3" stroke-linejoin="bevel"/>
<rect width="24" height="24" transform="matrix(-0.866025 -0.5 -0.866025 0.5 105.956 26)" fill="#81C046"/>
<rect width="24" height="24" transform="matrix(-0.866025 -0.5 -0.866025 0.5 105.956 26)" stroke="#212120" stroke-width="3" stroke-linejoin="bevel"/>
<rect width="24" height="24" transform="matrix(-0.866025 -0.5 -0.866025 0.5 126.741 38)" fill="#FCCF03"/>
<rect width="24" height="24" transform="matrix(-0.866025 -0.5 -0.866025 0.5 126.741 38)" stroke="#212120" stroke-width="3" stroke-linejoin="bevel"/>
<rect width="24" height="24" transform="matrix(-0.866025 -0.5 -0.866025 0.5 85.1714 14)" fill="#FCCF03"/>
<rect width="24" height="24" transform="matrix(-0.866025 -0.5 -0.866025 0.5 85.1714 14)" stroke="#212120" stroke-width="3" stroke-linejoin="bevel"/>
<rect width="24" height="24" transform="matrix(-0.866025 -0.5 -0.866025 0.5 64.387 26)" fill="#81C046"/>
<rect width="24" height="24" transform="matrix(-0.866025 -0.5 -0.866025 0.5 64.387 26)" stroke="#212120" stroke-width="3" stroke-linejoin="bevel"/>
<rect width="24" height="24" transform="matrix(-0.866025 -0.5 -0.866025 0.5 105.956 50)" fill="#81C046"/>
<rect width="24" height="24" transform="matrix(-0.866025 -0.5 -0.866025 0.5 105.956 50)" stroke="#212120" stroke-width="3" stroke-linejoin="bevel"/>
<rect width="24" height="24" transform="matrix(-0.866025 -0.5 -0.866025 0.5 85.1714 38)" fill="#81C046"/>
<rect width="24" height="24" transform="matrix(-0.866025 -0.5 -0.866025 0.5 85.1714 38)" stroke="#212120" stroke-width="3" stroke-linejoin="bevel"/>
<path d="M23.1798 76.7636L23.1798 104.364L16.9444 100.764L16.9444 73.1636L8.58903 68.3396L8.58903 62.4356L31.5352 75.6836L31.5352 81.5876L23.1798 76.7636ZM49.6016 114.866L49.2275 114.65C48.9781 115.21 48.6732 115.706 48.313 116.138C47.9527 116.57 47.5093 116.89 46.9827 117.098C46.4562 117.274 45.8327 117.298 45.1121 117.17C44.4193 117.058 43.6295 116.746 42.7427 116.234C41.3293 115.418 40.0684 114.306 38.9599 112.898C37.8791 111.506 36.9646 109.858 36.2163 107.954C35.4681 106.05 34.9 103.93 34.512 101.594C34.1517 99.2743 33.9716 96.7863 33.9716 94.1303C33.9716 88.4343 34.8722 84.6023 36.6736 82.6343C38.4749 80.6343 41.2601 80.7223 45.029 82.8983C46.5255 83.7623 47.8418 84.7623 48.9781 85.8983C50.1143 87.0023 51.0842 88.2183 51.8879 89.5463C52.7193 90.8583 53.3983 92.2583 53.9248 93.7463C54.4514 95.2343 54.867 96.7863 55.1719 98.4023L49.3522 96.6743C49.1859 95.8743 48.9919 95.0903 48.7702 94.3223C48.5762 93.5383 48.313 92.7943 47.9804 92.0903C47.6479 91.3863 47.2322 90.7463 46.7333 90.1703C46.2345 89.5623 45.6248 89.0503 44.9043 88.6343C43.3247 87.7223 42.2023 87.8263 41.5372 88.9463C40.8998 90.0823 40.5811 92.0103 40.5811 94.7303L40.5811 100.202C40.5811 102.922 40.9275 105.298 41.6203 107.33C42.3409 109.378 43.6018 110.922 45.4031 111.962C46.8165 112.778 47.8696 112.906 48.5624 112.346C49.2552 111.786 49.6016 110.754 49.6016 109.25L49.6016 106.802L44.6549 103.946L44.6549 98.8583L55.1719 104.93L55.1719 122.834L49.6016 119.618L49.6016 114.866Z" fill="black"/>
<g clip-path="url(#clip1_165:415)">
<path d="M93.4033 116.667L98.0221 114L98.0221 82L102.641 79.3333L102.641 74L98.0221 76.6667L98.0221 71.3333L93.4033 74L93.4033 79.3333L88.7845 82L88.7845 87.3333L93.4033 84.6667L93.4033 116.667ZM84.1657 95.3333L84.1657 90L88.7845 87.3333L88.7845 92.6667L84.1657 95.3333ZM84.1657 95.3333L84.1657 100.667L79.5469 103.333L79.5469 98L84.1657 95.3333ZM107.26 82L107.26 76.6667L102.641 79.3333L102.641 84.6667L107.26 82ZM107.26 82L107.26 87.3333L111.878 84.6667L111.878 79.3333L107.26 82Z" fill="#212120"/>
</g>
<defs>
<clipPath id="clip0_165:415">
<rect width="72" height="24" transform="matrix(-0.866025 -0.5 -0.866025 0.5 85.1714 62)" fill="white"/>
</clipPath>
<clipPath id="clip1_165:415">
<rect width="64" height="64" fill="white" transform="matrix(0.866025 -0.5 2.20305e-08 1 68 78)"/>
</clipPath>
</defs>
</svg>
