<svg width="235" height="56" viewBox="0 0 235 56" fill="none" xmlns="http://www.w3.org/2000/svg">
<path d="M23.958 27.5349L45.2461 39.8256L23.958 52.1163L2.66992 39.8256L23.958 27.5349Z" fill="#FCCF03" stroke="#212120" stroke-width="2" stroke-linejoin="bevel"/>
<path d="M45.2461 15.2443L23.958 2.95361V27.535L45.2461 39.8256V15.2443Z" fill="#FCCF03" stroke="#212120" stroke-width="2" stroke-linejoin="round"/>
<path d="M23.958 27.5348L45.2462 15.2441V39.8255L23.958 52.1162V27.5348Z" fill="#FCCF03" stroke="#212120" stroke-width="2" stroke-linejoin="round"/>
<path d="M23.958 2.95361L2.66992 15.2443V39.8256L23.958 27.535V2.95361Z" fill="#FCCF03" stroke="#212120" stroke-width="2" stroke-linejoin="round"/>
<path d="M2.66992 15.2441L23.958 27.5348V52.1162L2.66992 39.8255V15.2441Z" fill="#FCCF03" stroke="#212120" stroke-width="2" stroke-linejoin="round"/>
<path d="M9.76564 11.1472L31.0537 23.4379L23.9577 27.5348L2.66962 15.2441L9.76564 11.1472Z" fill="#FCCF03"/>
<path d="M22.6042 21.9194L12.3961 16.0258L11.1201 16.7624L21.3282 22.6561L22.6042 21.9194Z" fill="#212120"/>
<path d="M9.76564 11.1474L31.0537 23.4381L23.9577 27.535L2.66962 15.2443L9.76564 11.1474Z" stroke="#212120" stroke-width="2" stroke-linejoin="bevel"/>
<path d="M31.0534 7.05033L38.1494 11.1472L31.0534 15.2441L23.9574 11.1472L31.0534 7.05033Z" fill="#81C046"/>
<path d="M31.0534 7.05033L38.1494 11.1472L31.0534 15.2441L23.9574 11.1472L31.0534 7.05033Z" stroke="#212120" stroke-width="2" stroke-linejoin="bevel"/>
<path d="M38.1501 11.1472L45.2461 15.2441L38.1501 19.341L31.054 15.2441L38.1501 11.1472Z" fill="#FCCF03"/>
<path d="M38.1501 11.1472L45.2461 15.2441L38.1501 19.341L31.054 15.2441L38.1501 11.1472Z" stroke="#212120" stroke-width="2" stroke-linejoin="bevel"/>
<path d="M23.9577 2.95352L31.0537 7.05042L23.9577 11.1473L16.8617 7.05042L23.9577 2.95352Z" fill="#FCCF03"/>
<path d="M23.9577 2.95352L31.0537 7.05042L23.9577 11.1473L16.8617 7.05042L23.9577 2.95352Z" stroke="#212120" stroke-width="2" stroke-linejoin="bevel"/>
<path d="M16.862 7.05033L23.958 11.1472L16.862 15.2441L9.76596 11.1472L16.862 7.05033Z" fill="#81C046"/>
<path d="M16.862 7.05033L23.958 11.1472L16.862 15.2441L9.76596 11.1472L16.862 7.05033Z" stroke="#212120" stroke-width="2" stroke-linejoin="bevel"/>
<path d="M31.0534 15.2443L38.1494 19.3412L31.0534 23.4381L23.9574 19.3412L31.0534 15.2443Z" fill="#81C046"/>
<path d="M31.0534 15.2443L38.1494 19.3412L31.0534 23.4381L23.9574 19.3412L31.0534 15.2443Z" stroke="#212120" stroke-width="2" stroke-linejoin="bevel"/>
<path d="M23.9577 11.1472L31.0537 15.2441L23.9577 19.341L16.8617 15.2441L23.9577 11.1472Z" fill="#81C046"/>
<path d="M23.9577 11.1472L31.0537 15.2441L23.9577 19.341L16.8617 15.2441L23.9577 11.1472Z" stroke="#212120" stroke-width="2" stroke-linejoin="bevel"/>
<path d="M9.8896 28.4785V37.9015L7.76079 36.6724V27.2494L4.9082 25.6025V23.5868L12.7422 28.1098V30.1254L9.8896 28.4785ZM18.9102 41.4869L18.7825 41.4132C18.6973 41.6044 18.5932 41.7737 18.4703 41.9212C18.3473 42.0687 18.1959 42.1779 18.0161 42.249C17.8363 42.309 17.6235 42.3172 17.3775 42.2735C17.1409 42.2353 16.8713 42.1288 16.5685 41.954C16.086 41.6754 15.6555 41.2957 15.2771 40.815C14.9081 40.3398 14.5958 39.7772 14.3404 39.1271C14.0849 38.4771 13.891 37.7533 13.7585 36.9558C13.6355 36.1638 13.574 35.3144 13.574 34.4076C13.574 32.4629 13.8815 31.1547 14.4965 30.4828C15.1115 29.8 16.0624 29.83 17.3491 30.5729C17.86 30.8679 18.3094 31.2093 18.6973 31.5971C19.0852 31.9741 19.4164 32.3892 19.6908 32.8426C19.9746 33.2905 20.2064 33.7685 20.3862 34.2765C20.566 34.7845 20.7079 35.3144 20.812 35.8661L18.8251 35.2761C18.7683 35.003 18.7021 34.7354 18.6264 34.4732C18.5601 34.2055 18.4703 33.9515 18.3567 33.7111C18.2432 33.4708 18.1013 33.2523 17.9309 33.0556C17.7607 32.8481 17.5525 32.6733 17.3065 32.5312C16.7672 32.2199 16.384 32.2554 16.157 32.6377C15.9393 33.0256 15.8305 33.6838 15.8305 34.6125V36.4805C15.8305 37.4092 15.9488 38.2203 16.1853 38.9141C16.4314 39.6133 16.8618 40.1404 17.4768 40.4955C17.9594 40.7741 18.3189 40.8178 18.5554 40.6266C18.7919 40.4354 18.9102 40.0831 18.9102 39.5696V38.7338L17.2214 37.7588V36.0218L20.812 38.0947V44.2073L18.9102 43.1093V41.4869Z" fill="black"/>
<path d="M33.8645 42.1019L35.4414 41.1914V30.2663L37.0183 29.3559V27.5351L35.4414 28.4455V26.6246L33.8645 27.5351V29.3559L32.2876 30.2663V32.0872L33.8645 31.1768V42.1019ZM30.7107 34.8184V32.9976L32.2876 32.0872V33.908L30.7107 34.8184ZM30.7107 34.8184V36.6394L29.1338 37.5496V35.7289L30.7107 34.8184ZM38.5953 30.2663V28.4455L37.0183 29.3559V31.1768L38.5953 30.2663ZM38.5953 30.2663V32.0872L40.1719 31.1768V29.3559L38.5953 30.2663Z" fill="#212120"/>
<path d="M71.7655 21.7099V39.5349H67.1155V21.7099H60.8845V17.8969H77.9965V21.7099H71.7655ZM79.5034 16.5949H84.0914V26.4529H84.2774C84.4634 25.9982 84.6908 25.5746 84.9594 25.1819C85.2281 24.7892 85.5484 24.4482 85.9204 24.1589C86.3131 23.8489 86.7574 23.6112 87.2534 23.4459C87.7701 23.2599 88.3488 23.1669 88.9894 23.1669C89.7541 23.1669 90.4568 23.3012 91.0974 23.5699C91.7381 23.8179 92.2858 24.2002 92.7404 24.7169C93.1951 25.2336 93.5464 25.8639 93.7944 26.6079C94.0631 27.3519 94.1974 28.2096 94.1974 29.1809V39.5349H89.6094V29.8009C89.6094 27.7342 88.7104 26.7009 86.9124 26.7009C86.5611 26.7009 86.2098 26.7526 85.8584 26.8559C85.5278 26.9386 85.2281 27.0832 84.9594 27.2899C84.6908 27.4759 84.4738 27.7136 84.3084 28.0029C84.1638 28.2922 84.0914 28.6332 84.0914 29.0259V39.5349H79.5034V16.5949ZM106.833 36.6209H106.647C106.296 37.5302 105.738 38.3052 104.973 38.9459C104.229 39.5866 103.217 39.9069 101.935 39.9069C101.171 39.9069 100.468 39.7829 99.8273 39.5349C99.1867 39.2662 98.639 38.8736 98.1843 38.3569C97.7297 37.8402 97.368 37.2099 97.0993 36.4659C96.8513 35.7219 96.7273 34.8642 96.7273 33.8929V23.5389H101.315V33.2729C101.315 35.3396 102.214 36.3729 104.012 36.3729C104.364 36.3729 104.705 36.3316 105.035 36.2489C105.387 36.1456 105.686 36.0009 105.934 35.8149C106.203 35.6082 106.42 35.3602 106.585 35.0709C106.751 34.7816 106.833 34.4406 106.833 34.0479V23.5389H111.421V39.5349H106.833V36.6209ZM99.4553 16.4089L103.268 14.5179L106.337 20.5319L103.609 21.8649L99.4553 16.4089ZM114.199 39.5349V23.5389H118.787V26.4529H118.973C119.159 25.9982 119.387 25.5746 119.655 25.1819C119.924 24.7892 120.244 24.4482 120.616 24.1589C121.009 23.8489 121.453 23.6112 121.949 23.4459C122.466 23.2599 123.045 23.1669 123.685 23.1669C124.45 23.1669 125.153 23.3012 125.793 23.5699C126.434 23.8179 126.982 24.2002 127.436 24.7169C127.891 25.2336 128.242 25.8639 128.49 26.6079C128.759 27.3519 128.893 28.2096 128.893 29.1809V39.5349H124.305V29.8009C124.305 27.7342 123.406 26.7009 121.608 26.7009C121.257 26.7009 120.906 26.7526 120.554 26.8559C120.224 26.9386 119.924 27.0832 119.655 27.2899C119.387 27.4759 119.17 27.7136 119.004 28.0029C118.86 28.2922 118.787 28.6332 118.787 29.0259V39.5349H114.199ZM147.605 41.1469C147.605 42.8416 146.892 44.0919 145.466 44.8979C144.04 45.7039 141.798 46.1069 138.739 46.1069C137.21 46.1069 135.949 46.0139 134.957 45.8279C133.965 45.6626 133.169 45.4146 132.57 45.0839C131.991 44.7532 131.578 44.3606 131.33 43.9059C131.103 43.4512 130.989 42.9552 130.989 42.4179C130.989 41.5086 131.258 40.8162 131.795 40.3409C132.332 39.8862 133.087 39.5349 134.058 39.2869V39.1009C133.376 38.8942 132.828 38.6049 132.415 38.2329C132.022 37.8402 131.826 37.2926 131.826 36.5899C131.826 35.8046 132.084 35.2259 132.601 34.8539C133.138 34.4819 133.841 34.1926 134.709 33.9859V33.7999C133.758 33.3452 133.014 32.7046 132.477 31.8779C131.96 31.0512 131.702 30.0489 131.702 28.8709C131.702 27.9409 131.867 27.1246 132.198 26.4219C132.529 25.6986 132.994 25.0992 133.593 24.6239C134.213 24.1486 134.947 23.7869 135.794 23.5389C136.641 23.2909 137.592 23.1669 138.646 23.1669C139.659 23.1669 140.599 23.2806 141.467 23.5079V22.6399C141.467 22.0199 141.684 21.5032 142.118 21.0899C142.552 20.6766 143.151 20.4699 143.916 20.4699H146.737V23.8179H142.893V24.0969C143.761 24.5516 144.433 25.1819 144.908 25.9879C145.404 26.7732 145.652 27.7342 145.652 28.8709C145.652 29.8009 145.487 30.6172 145.156 31.3199C144.825 32.0226 144.35 32.6219 143.73 33.1179C143.11 33.5932 142.366 33.9549 141.498 34.2029C140.651 34.4509 139.7 34.5749 138.646 34.5749C138.171 34.5749 137.716 34.5542 137.282 34.5129C136.848 34.4509 136.435 34.3682 136.042 34.2649C135.815 34.3889 135.618 34.5439 135.453 34.7299C135.308 34.9159 135.236 35.1536 135.236 35.4429C135.236 35.6909 135.298 35.8872 135.422 36.0319C135.546 36.1766 135.711 36.2902 135.918 36.3729C136.145 36.4349 136.404 36.4762 136.693 36.4969C136.982 36.5176 137.282 36.5279 137.592 36.5279H141.25C142.387 36.5279 143.358 36.6416 144.164 36.8689C144.97 37.0962 145.631 37.4166 146.148 37.8299C146.665 38.2432 147.037 38.7289 147.264 39.2869C147.491 39.8449 147.605 40.4649 147.605 41.1469ZM143.265 41.4879C143.265 41.0746 143.1 40.7439 142.769 40.4959C142.438 40.2686 141.808 40.1549 140.878 40.1549H135.391C134.978 40.5062 134.771 40.9402 134.771 41.4569C134.771 41.9529 134.978 42.3559 135.391 42.6659C135.825 42.9966 136.548 43.1619 137.561 43.1619H140.258C141.312 43.1619 142.077 43.0172 142.552 42.7279C143.027 42.4386 143.265 42.0252 143.265 41.4879ZM138.646 31.6609C139.576 31.6609 140.248 31.4336 140.661 30.9789C141.095 30.5242 141.312 29.9456 141.312 29.2429V28.4989C141.312 27.7962 141.095 27.2176 140.661 26.7629C140.248 26.3082 139.576 26.0809 138.646 26.0809C137.737 26.0809 137.075 26.3082 136.662 26.7629C136.249 27.2176 136.042 27.7962 136.042 28.4989V29.2429C136.042 29.9456 136.249 30.5242 136.662 30.9789C137.075 31.4336 137.737 31.6609 138.646 31.6609ZM182.301 41.1469C182.301 42.8416 181.588 44.0919 180.162 44.8979C178.736 45.7039 176.494 46.1069 173.435 46.1069C171.906 46.1069 170.645 46.0139 169.653 45.8279C168.661 45.6626 167.865 45.4146 167.266 45.0839C166.687 44.7532 166.274 44.3606 166.026 43.9059C165.799 43.4512 165.685 42.9552 165.685 42.4179C165.685 41.5086 165.954 40.8162 166.491 40.3409C167.028 39.8862 167.783 39.5349 168.754 39.2869V39.1009C168.072 38.8942 167.524 38.6049 167.111 38.2329C166.718 37.8402 166.522 37.2926 166.522 36.5899C166.522 35.8046 166.78 35.2259 167.297 34.8539C167.834 34.4819 168.537 34.1926 169.405 33.9859V33.7999C168.454 33.3452 167.71 32.7046 167.173 31.8779C166.656 31.0512 166.398 30.0489 166.398 28.8709C166.398 27.9409 166.563 27.1246 166.894 26.4219C167.225 25.6986 167.69 25.0992 168.289 24.6239C168.909 24.1486 169.643 23.7869 170.49 23.5389C171.337 23.2909 172.288 23.1669 173.342 23.1669C174.355 23.1669 175.295 23.2806 176.163 23.5079V22.6399C176.163 22.0199 176.38 21.5032 176.814 21.0899C177.248 20.6766 177.847 20.4699 178.612 20.4699H181.433V23.8179H177.589V24.0969C178.457 24.5516 179.129 25.1819 179.604 25.9879C180.1 26.7732 180.348 27.7342 180.348 28.8709C180.348 29.8009 180.183 30.6172 179.852 31.3199C179.521 32.0226 179.046 32.6219 178.426 33.1179C177.806 33.5932 177.062 33.9549 176.194 34.2029C175.347 34.4509 174.396 34.5749 173.342 34.5749C172.867 34.5749 172.412 34.5542 171.978 34.5129C171.544 34.4509 171.131 34.3682 170.738 34.2649C170.511 34.3889 170.314 34.5439 170.149 34.7299C170.004 34.9159 169.932 35.1536 169.932 35.4429C169.932 35.6909 169.994 35.8872 170.118 36.0319C170.242 36.1766 170.407 36.2902 170.614 36.3729C170.841 36.4349 171.1 36.4762 171.389 36.4969C171.678 36.5176 171.978 36.5279 172.288 36.5279H175.946C177.083 36.5279 178.054 36.6416 178.86 36.8689C179.666 37.0962 180.327 37.4166 180.844 37.8299C181.361 38.2432 181.733 38.7289 181.96 39.2869C182.187 39.8449 182.301 40.4649 182.301 41.1469ZM177.961 41.4879C177.961 41.0746 177.796 40.7439 177.465 40.4959C177.134 40.2686 176.504 40.1549 175.574 40.1549H170.087C169.674 40.5062 169.467 40.9402 169.467 41.4569C169.467 41.9529 169.674 42.3559 170.087 42.6659C170.521 42.9966 171.244 43.1619 172.257 43.1619H174.954C176.008 43.1619 176.773 43.0172 177.248 42.7279C177.723 42.4386 177.961 42.0252 177.961 41.4879ZM173.342 31.6609C174.272 31.6609 174.944 31.4336 175.357 30.9789C175.791 30.5242 176.008 29.9456 176.008 29.2429V28.4989C176.008 27.7962 175.791 27.2176 175.357 26.7629C174.944 26.3082 174.272 26.0809 173.342 26.0809C172.433 26.0809 171.771 26.3082 171.358 26.7629C170.945 27.2176 170.738 27.7962 170.738 28.4989V29.2429C170.738 29.9456 170.945 30.5242 171.358 30.9789C171.771 31.4336 172.433 31.6609 173.342 31.6609ZM196.673 39.5349C195.722 39.5349 194.957 39.2972 194.379 38.8219C193.8 38.3259 193.459 37.6232 193.356 36.7139H193.201C192.911 37.7679 192.333 38.5636 191.465 39.1009C190.617 39.6382 189.574 39.9069 188.334 39.9069C186.784 39.9069 185.533 39.4936 184.583 38.6669C183.653 37.8196 183.188 36.6416 183.188 35.1329C183.188 33.4589 183.797 32.2189 185.017 31.4129C186.236 30.6069 188.024 30.2039 190.38 30.2039H192.953V29.3979C192.953 28.4472 192.725 27.7342 192.271 27.2589C191.837 26.7629 191.093 26.5149 190.039 26.5149C189.067 26.5149 188.282 26.7009 187.683 27.0729C187.083 27.4449 186.567 27.9306 186.133 28.5299L183.622 26.2979C184.159 25.3886 184.996 24.6446 186.133 24.0659C187.29 23.4666 188.768 23.1669 190.566 23.1669C192.756 23.1669 194.461 23.6732 195.681 24.6859C196.921 25.6779 197.541 27.1866 197.541 29.2119V36.2179H199.308V39.5349H196.673ZM190.07 36.8999C190.876 36.8999 191.558 36.7036 192.116 36.3109C192.674 35.9182 192.953 35.3499 192.953 34.6059V32.6839H190.504C188.623 32.6839 187.683 33.3142 187.683 34.5749V35.1949C187.683 35.7529 187.9 36.1766 188.334 36.4659C188.768 36.7552 189.346 36.8999 190.07 36.8999ZM199.854 39.5349V23.5389H203.543V25.8949H203.76C204.008 25.1509 204.359 24.5102 204.814 23.9729C205.289 23.4356 205.95 23.1669 206.798 23.1669C208.348 23.1669 209.298 24.0762 209.65 25.8949H209.836C209.96 25.5229 210.115 25.1716 210.301 24.8409C210.487 24.5102 210.714 24.2209 210.983 23.9729C211.251 23.7249 211.572 23.5286 211.944 23.3839C212.316 23.2392 212.75 23.1669 213.246 23.1669C215.478 23.1669 216.594 24.8099 216.594 28.0959V39.5349H212.905V28.5609C212.905 27.8169 212.77 27.3002 212.502 27.0109C212.254 26.7009 211.923 26.5459 211.51 26.5459C211.117 26.5459 210.776 26.6802 210.487 26.9489C210.218 27.1969 210.084 27.5896 210.084 28.1269V39.5349H206.364V28.5609C206.364 27.8169 206.24 27.3002 205.992 27.0109C205.764 26.7009 205.444 26.5459 205.031 26.5459C204.617 26.5459 204.266 26.6802 203.977 26.9489C203.687 27.1969 203.543 27.5896 203.543 28.1269V39.5349H199.854ZM226.006 39.9069C223.319 39.9069 221.283 39.1629 219.899 37.6749C218.514 36.1869 217.822 34.1616 217.822 31.5989C217.822 30.2969 217.997 29.1292 218.349 28.0959C218.721 27.0419 219.237 26.1532 219.899 25.4299C220.581 24.6859 221.397 24.1279 222.348 23.7559C223.319 23.3632 224.404 23.1669 225.603 23.1669C226.801 23.1669 227.876 23.3632 228.827 23.7559C229.777 24.1279 230.583 24.6652 231.245 25.3679C231.906 26.0706 232.412 26.9282 232.764 27.9409C233.136 28.9329 233.322 30.0489 233.322 31.2889V32.6529H222.379V32.9319C222.379 33.9652 222.699 34.8022 223.34 35.4429C223.98 36.0629 224.921 36.3729 226.161 36.3729C227.111 36.3729 227.928 36.1972 228.61 35.8459C229.292 35.4739 229.881 34.9882 230.377 34.3889L232.857 37.0859C232.237 37.8506 231.369 38.5119 230.253 39.0699C229.137 39.6279 227.721 39.9069 226.006 39.9069ZM225.634 26.4529C224.642 26.4529 223.846 26.7629 223.247 27.3829C222.668 27.9822 222.379 28.7986 222.379 29.8319V30.0799H228.827V29.8319C228.827 28.7779 228.537 27.9512 227.959 27.3519C227.401 26.7526 226.626 26.4529 225.634 26.4529Z" fill="#212120"/>
</svg>
