<svg width="227" height="64" viewBox="0 0 227 64" fill="none" xmlns="http://www.w3.org/2000/svg">
<path d="M19.9649 32L37.705 42.2422L19.9649 52.4845L2.22485 42.2422L19.9649 32Z" fill="#FCCF03" stroke="#212120" stroke-width="2" stroke-linejoin="bevel"/>
<path d="M37.7051 21.7579L19.9651 11.5156V32.0001L37.7051 42.2423V21.7579Z" fill="#FCCF03" stroke="#212120" stroke-width="2" stroke-linejoin="round"/>
<path d="M19.9648 31.9998L37.705 21.7576V42.242L19.9648 52.4843V31.9998Z" fill="#FCCF03" stroke="#212120" stroke-width="2" stroke-linejoin="round"/>
<path d="M19.9649 11.5156L2.22485 21.7579V42.2423L19.9649 32.0001V11.5156Z" fill="#FCCF03" stroke="#212120" stroke-width="2" stroke-linejoin="round"/>
<path d="M2.22485 21.7576L19.9649 31.9998V52.4843L2.22485 42.242V21.7576Z" fill="#FCCF03" stroke="#212120" stroke-width="2" stroke-linejoin="round"/>
<path d="M8.13812 18.3435L25.8782 28.5857L19.9648 31.9998L2.22476 21.7575L8.13812 18.3435Z" fill="#FCCF03"/>
<path d="M18.8367 27.3203L10.3299 22.4089L9.2666 23.0228L17.7733 27.9342L18.8367 27.3203Z" fill="#212120"/>
<path d="M8.13812 18.3437L25.8782 28.5859L19.9648 32L2.22477 21.7578L8.13812 18.3437Z" stroke="#212120" stroke-width="2" stroke-linejoin="bevel"/>
<path d="M25.8782 14.9294L31.7915 18.3435L25.8782 21.7576L19.9648 18.3435L25.8782 14.9294Z" fill="#81C046"/>
<path d="M25.8782 14.9294L31.7915 18.3435L25.8782 21.7576L19.9648 18.3435L25.8782 14.9294Z" stroke="#212120" stroke-width="2" stroke-linejoin="bevel"/>
<path d="M31.7917 18.3435L37.7051 21.7576L31.7917 25.1716L25.8784 21.7576L31.7917 18.3435Z" fill="#FCCF03"/>
<path d="M31.7917 18.3435L37.7051 21.7576L31.7917 25.1716L25.8784 21.7576L31.7917 18.3435Z" stroke="#212120" stroke-width="2" stroke-linejoin="bevel"/>
<path d="M19.9648 11.5154L25.8782 14.9294L19.9648 18.3435L14.0515 14.9294L19.9648 11.5154Z" fill="#FCCF03"/>
<path d="M19.9648 11.5154L25.8782 14.9294L19.9648 18.3435L14.0515 14.9294L19.9648 11.5154Z" stroke="#212120" stroke-width="2" stroke-linejoin="bevel"/>
<path d="M14.0515 14.9294L19.9648 18.3435L14.0515 21.7576L8.13814 18.3435L14.0515 14.9294Z" fill="#81C046"/>
<path d="M14.0515 14.9294L19.9648 18.3435L14.0515 21.7576L8.13814 18.3435L14.0515 14.9294Z" stroke="#212120" stroke-width="2" stroke-linejoin="bevel"/>
<path d="M25.8782 21.7578L31.7915 25.1719L25.8782 28.586L19.9648 25.1719L25.8782 21.7578Z" fill="#81C046"/>
<path d="M25.8782 21.7578L31.7915 25.1719L25.8782 28.586L19.9648 25.1719L25.8782 21.7578Z" stroke="#212120" stroke-width="2" stroke-linejoin="bevel"/>
<path d="M19.9648 18.3435L25.8782 21.7576L19.9648 25.1716L14.0515 21.7576L19.9648 18.3435Z" fill="#81C046"/>
<path d="M19.9648 18.3435L25.8782 21.7576L19.9648 25.1716L14.0515 21.7576L19.9648 18.3435Z" stroke="#212120" stroke-width="2" stroke-linejoin="bevel"/>
<path d="M8.24125 32.7864V40.6389L6.46724 39.6146V31.7621L4.09009 30.3897V28.71L10.6184 32.4791V34.1588L8.24125 32.7864ZM15.7584 43.6267L15.652 43.5653C15.581 43.7246 15.4943 43.8657 15.3918 43.9886C15.2893 44.1115 15.1632 44.2026 15.0133 44.2618C14.8635 44.3118 14.6861 44.3187 14.4811 44.2822C14.284 44.2504 14.0593 44.1616 13.807 44.016C13.4049 43.7838 13.0462 43.4674 12.7308 43.0668C12.4233 42.6708 12.1631 42.2019 11.9502 41.6602C11.7374 41.1185 11.5757 40.5154 11.4653 39.8508C11.3628 39.1908 11.3116 38.483 11.3116 37.7273C11.3116 36.1068 11.5678 35.0165 12.0803 34.4566C12.5928 33.8876 13.3852 33.9126 14.4575 34.5317C14.8833 34.7775 15.2578 35.0621 15.581 35.3853C15.9043 35.6993 16.1802 36.0453 16.4089 36.4231C16.6454 36.7964 16.8386 37.1947 16.9884 37.6181C17.1382 38.0414 17.2565 38.483 17.3432 38.9427L15.6875 38.4511C15.6402 38.2235 15.585 38.0004 15.5219 37.7819C15.4667 37.5589 15.3918 37.3472 15.2972 37.1469C15.2026 36.9466 15.0843 36.7645 14.9424 36.6007C14.8005 36.4277 14.627 36.282 14.422 36.1637C13.9726 35.9042 13.6533 35.9338 13.4641 36.2524C13.2827 36.5756 13.192 37.1242 13.192 37.898V39.4547C13.192 40.2286 13.2906 40.9046 13.4877 41.4827C13.6927 42.0654 14.0514 42.5047 14.5639 42.8005C14.966 43.0327 15.2657 43.0691 15.4628 42.9098C15.6599 42.7505 15.7584 42.4569 15.7584 42.029V41.3325L14.3511 40.5199V39.0725L17.3432 40.7999V45.8937L15.7584 44.9787V43.6267Z" fill="black"/>
<path d="M28.2203 44.1392L29.5344 43.3804V34.2762L30.8485 33.5175V32.0001L29.5344 32.7588V31.2415L28.2203 32.0001V33.5175L26.9062 34.2762V35.7936L28.2203 35.0349V44.1392ZM25.5922 38.0696V36.5523L26.9062 35.7936V37.3109L25.5922 38.0696ZM25.5922 38.0696V39.5871L24.2781 40.3456V38.8283L25.5922 38.0696ZM32.1626 34.2762V32.7588L30.8485 33.5175V35.0349L32.1626 34.2762ZM32.1626 34.2762V35.7936L33.4765 35.0349V33.5175L32.1626 34.2762Z" fill="#212120"/>
<path d="M63.7655 26.175V44H59.1155V26.175H52.8845V22.362H69.9965V26.175H63.7655ZM71.5034 21.06H76.0914V30.918H76.2774C76.4634 30.4633 76.6908 30.0397 76.9594 29.647C77.2281 29.2543 77.5484 28.9133 77.9204 28.624C78.3131 28.314 78.7574 28.0763 79.2534 27.911C79.7701 27.725 80.3488 27.632 80.9894 27.632C81.7541 27.632 82.4568 27.7663 83.0974 28.035C83.7381 28.283 84.2858 28.6653 84.7404 29.182C85.1951 29.6987 85.5464 30.329 85.7944 31.073C86.0631 31.817 86.1974 32.6747 86.1974 33.646V44H81.6094V34.266C81.6094 32.1993 80.7104 31.166 78.9124 31.166C78.5611 31.166 78.2098 31.2177 77.8584 31.321C77.5278 31.4037 77.2281 31.5483 76.9594 31.755C76.6908 31.941 76.4738 32.1787 76.3084 32.468C76.1638 32.7573 76.0914 33.0983 76.0914 33.491V44H71.5034V21.06ZM98.8333 41.086H98.6473C98.296 41.9953 97.738 42.7703 96.9733 43.411C96.2293 44.0517 95.2167 44.372 93.9353 44.372C93.1707 44.372 92.468 44.248 91.8273 44C91.1867 43.7313 90.639 43.3387 90.1843 42.822C89.7297 42.3053 89.368 41.675 89.0993 40.931C88.8513 40.187 88.7273 39.3293 88.7273 38.358V28.004H93.3153V37.738C93.3153 39.8047 94.2143 40.838 96.0123 40.838C96.3637 40.838 96.7047 40.7967 97.0353 40.714C97.3867 40.6107 97.6863 40.466 97.9343 40.28C98.203 40.0733 98.42 39.8253 98.5853 39.536C98.7507 39.2467 98.8333 38.9057 98.8333 38.513V28.004H103.421V44H98.8333V41.086ZM91.4553 20.874L95.2683 18.983L98.3373 24.997L95.6093 26.33L91.4553 20.874ZM106.199 44V28.004H110.787V30.918H110.973C111.159 30.4633 111.387 30.0397 111.655 29.647C111.924 29.2543 112.244 28.9133 112.616 28.624C113.009 28.314 113.453 28.0763 113.949 27.911C114.466 27.725 115.045 27.632 115.685 27.632C116.45 27.632 117.153 27.7663 117.793 28.035C118.434 28.283 118.982 28.6653 119.436 29.182C119.891 29.6987 120.242 30.329 120.49 31.073C120.759 31.817 120.893 32.6747 120.893 33.646V44H116.305V34.266C116.305 32.1993 115.406 31.166 113.608 31.166C113.257 31.166 112.906 31.2177 112.554 31.321C112.224 31.4037 111.924 31.5483 111.655 31.755C111.387 31.941 111.17 32.1787 111.004 32.468C110.86 32.7573 110.787 33.0983 110.787 33.491V44H106.199ZM139.605 45.612C139.605 47.3067 138.892 48.557 137.466 49.363C136.04 50.169 133.798 50.572 130.739 50.572C129.21 50.572 127.949 50.479 126.957 50.293C125.965 50.1277 125.169 49.8797 124.57 49.549C123.991 49.2183 123.578 48.8257 123.33 48.371C123.103 47.9163 122.989 47.4203 122.989 46.883C122.989 45.9737 123.258 45.2813 123.795 44.806C124.332 44.3513 125.087 44 126.058 43.752V43.566C125.376 43.3593 124.828 43.07 124.415 42.698C124.022 42.3053 123.826 41.7577 123.826 41.055C123.826 40.2697 124.084 39.691 124.601 39.319C125.138 38.947 125.841 38.6577 126.709 38.451V38.265C125.758 37.8103 125.014 37.1697 124.477 36.343C123.96 35.5163 123.702 34.514 123.702 33.336C123.702 32.406 123.867 31.5897 124.198 30.887C124.529 30.1637 124.994 29.5643 125.593 29.089C126.213 28.6137 126.947 28.252 127.794 28.004C128.641 27.756 129.592 27.632 130.646 27.632C131.659 27.632 132.599 27.7457 133.467 27.973V27.105C133.467 26.485 133.684 25.9683 134.118 25.555C134.552 25.1417 135.151 24.935 135.916 24.935H138.737V28.283H134.893V28.562C135.761 29.0167 136.433 29.647 136.908 30.453C137.404 31.2383 137.652 32.1993 137.652 33.336C137.652 34.266 137.487 35.0823 137.156 35.785C136.825 36.4877 136.35 37.087 135.73 37.583C135.11 38.0583 134.366 38.42 133.498 38.668C132.651 38.916 131.7 39.04 130.646 39.04C130.171 39.04 129.716 39.0193 129.282 38.978C128.848 38.916 128.435 38.8333 128.042 38.73C127.815 38.854 127.618 39.009 127.453 39.195C127.308 39.381 127.236 39.6187 127.236 39.908C127.236 40.156 127.298 40.3523 127.422 40.497C127.546 40.6417 127.711 40.7553 127.918 40.838C128.145 40.9 128.404 40.9413 128.693 40.962C128.982 40.9827 129.282 40.993 129.592 40.993H133.25C134.387 40.993 135.358 41.1067 136.164 41.334C136.97 41.5613 137.631 41.8817 138.148 42.295C138.665 42.7083 139.037 43.194 139.264 43.752C139.491 44.31 139.605 44.93 139.605 45.612ZM135.265 45.953C135.265 45.5397 135.1 45.209 134.769 44.961C134.438 44.7337 133.808 44.62 132.878 44.62H127.391C126.978 44.9713 126.771 45.4053 126.771 45.922C126.771 46.418 126.978 46.821 127.391 47.131C127.825 47.4617 128.548 47.627 129.561 47.627H132.258C133.312 47.627 134.077 47.4823 134.552 47.193C135.027 46.9037 135.265 46.4903 135.265 45.953ZM130.646 36.126C131.576 36.126 132.248 35.8987 132.661 35.444C133.095 34.9893 133.312 34.4107 133.312 33.708V32.964C133.312 32.2613 133.095 31.6827 132.661 31.228C132.248 30.7733 131.576 30.546 130.646 30.546C129.737 30.546 129.075 30.7733 128.662 31.228C128.249 31.6827 128.042 32.2613 128.042 32.964V33.708C128.042 34.4107 128.249 34.9893 128.662 35.444C129.075 35.8987 129.737 36.126 130.646 36.126ZM174.301 45.612C174.301 47.3067 173.588 48.557 172.162 49.363C170.736 50.169 168.494 50.572 165.435 50.572C163.906 50.572 162.645 50.479 161.653 50.293C160.661 50.1277 159.865 49.8797 159.266 49.549C158.687 49.2183 158.274 48.8257 158.026 48.371C157.799 47.9163 157.685 47.4203 157.685 46.883C157.685 45.9737 157.954 45.2813 158.491 44.806C159.028 44.3513 159.783 44 160.754 43.752V43.566C160.072 43.3593 159.524 43.07 159.111 42.698C158.718 42.3053 158.522 41.7577 158.522 41.055C158.522 40.2697 158.78 39.691 159.297 39.319C159.834 38.947 160.537 38.6577 161.405 38.451V38.265C160.454 37.8103 159.71 37.1697 159.173 36.343C158.656 35.5163 158.398 34.514 158.398 33.336C158.398 32.406 158.563 31.5897 158.894 30.887C159.225 30.1637 159.69 29.5643 160.289 29.089C160.909 28.6137 161.643 28.252 162.49 28.004C163.337 27.756 164.288 27.632 165.342 27.632C166.355 27.632 167.295 27.7457 168.163 27.973V27.105C168.163 26.485 168.38 25.9683 168.814 25.555C169.248 25.1417 169.847 24.935 170.612 24.935H173.433V28.283H169.589V28.562C170.457 29.0167 171.129 29.647 171.604 30.453C172.1 31.2383 172.348 32.1993 172.348 33.336C172.348 34.266 172.183 35.0823 171.852 35.785C171.521 36.4877 171.046 37.087 170.426 37.583C169.806 38.0583 169.062 38.42 168.194 38.668C167.347 38.916 166.396 39.04 165.342 39.04C164.867 39.04 164.412 39.0193 163.978 38.978C163.544 38.916 163.131 38.8333 162.738 38.73C162.511 38.854 162.314 39.009 162.149 39.195C162.004 39.381 161.932 39.6187 161.932 39.908C161.932 40.156 161.994 40.3523 162.118 40.497C162.242 40.6417 162.407 40.7553 162.614 40.838C162.841 40.9 163.1 40.9413 163.389 40.962C163.678 40.9827 163.978 40.993 164.288 40.993H167.946C169.083 40.993 170.054 41.1067 170.86 41.334C171.666 41.5613 172.327 41.8817 172.844 42.295C173.361 42.7083 173.733 43.194 173.96 43.752C174.187 44.31 174.301 44.93 174.301 45.612ZM169.961 45.953C169.961 45.5397 169.796 45.209 169.465 44.961C169.134 44.7337 168.504 44.62 167.574 44.62H162.087C161.674 44.9713 161.467 45.4053 161.467 45.922C161.467 46.418 161.674 46.821 162.087 47.131C162.521 47.4617 163.244 47.627 164.257 47.627H166.954C168.008 47.627 168.773 47.4823 169.248 47.193C169.723 46.9037 169.961 46.4903 169.961 45.953ZM165.342 36.126C166.272 36.126 166.944 35.8987 167.357 35.444C167.791 34.9893 168.008 34.4107 168.008 33.708V32.964C168.008 32.2613 167.791 31.6827 167.357 31.228C166.944 30.7733 166.272 30.546 165.342 30.546C164.433 30.546 163.771 30.7733 163.358 31.228C162.945 31.6827 162.738 32.2613 162.738 32.964V33.708C162.738 34.4107 162.945 34.9893 163.358 35.444C163.771 35.8987 164.433 36.126 165.342 36.126ZM188.673 44C187.722 44 186.957 43.7623 186.379 43.287C185.8 42.791 185.459 42.0883 185.356 41.179H185.201C184.911 42.233 184.333 43.0287 183.465 43.566C182.617 44.1033 181.574 44.372 180.334 44.372C178.784 44.372 177.533 43.9587 176.583 43.132C175.653 42.2847 175.188 41.1067 175.188 39.598C175.188 37.924 175.797 36.684 177.017 35.878C178.236 35.072 180.024 34.669 182.38 34.669H184.953V33.863C184.953 32.9123 184.725 32.1993 184.271 31.724C183.837 31.228 183.093 30.98 182.039 30.98C181.067 30.98 180.282 31.166 179.683 31.538C179.083 31.91 178.567 32.3957 178.133 32.995L175.622 30.763C176.159 29.8537 176.996 29.1097 178.133 28.531C179.29 27.9317 180.768 27.632 182.566 27.632C184.756 27.632 186.461 28.1383 187.681 29.151C188.921 30.143 189.541 31.6517 189.541 33.677V40.683H191.308V44H188.673ZM182.07 41.365C182.876 41.365 183.558 41.1687 184.116 40.776C184.674 40.3833 184.953 39.815 184.953 39.071V37.149H182.504C180.623 37.149 179.683 37.7793 179.683 39.04V39.66C179.683 40.218 179.9 40.6417 180.334 40.931C180.768 41.2203 181.346 41.365 182.07 41.365ZM191.854 44V28.004H195.543V30.36H195.76C196.008 29.616 196.359 28.9753 196.814 28.438C197.289 27.9007 197.95 27.632 198.798 27.632C200.348 27.632 201.298 28.5413 201.65 30.36H201.836C201.96 29.988 202.115 29.6367 202.301 29.306C202.487 28.9753 202.714 28.686 202.983 28.438C203.251 28.19 203.572 27.9937 203.944 27.849C204.316 27.7043 204.75 27.632 205.246 27.632C207.478 27.632 208.594 29.275 208.594 32.561V44H204.905V33.026C204.905 32.282 204.77 31.7653 204.502 31.476C204.254 31.166 203.923 31.011 203.51 31.011C203.117 31.011 202.776 31.1453 202.487 31.414C202.218 31.662 202.084 32.0547 202.084 32.592V44H198.364V33.026C198.364 32.282 198.24 31.7653 197.992 31.476C197.764 31.166 197.444 31.011 197.031 31.011C196.617 31.011 196.266 31.1453 195.977 31.414C195.687 31.662 195.543 32.0547 195.543 32.592V44H191.854ZM218.006 44.372C215.319 44.372 213.283 43.628 211.899 42.14C210.514 40.652 209.822 38.6267 209.822 36.064C209.822 34.762 209.997 33.5943 210.349 32.561C210.721 31.507 211.237 30.6183 211.899 29.895C212.581 29.151 213.397 28.593 214.348 28.221C215.319 27.8283 216.404 27.632 217.603 27.632C218.801 27.632 219.876 27.8283 220.827 28.221C221.777 28.593 222.583 29.1303 223.245 29.833C223.906 30.5357 224.412 31.3933 224.764 32.406C225.136 33.398 225.322 34.514 225.322 35.754V37.118H214.379V37.397C214.379 38.4303 214.699 39.2673 215.34 39.908C215.98 40.528 216.921 40.838 218.161 40.838C219.111 40.838 219.928 40.6623 220.61 40.311C221.292 39.939 221.881 39.4533 222.377 38.854L224.857 41.551C224.237 42.3157 223.369 42.977 222.253 43.535C221.137 44.093 219.721 44.372 218.006 44.372ZM217.634 30.918C216.642 30.918 215.846 31.228 215.247 31.848C214.668 32.4473 214.379 33.2637 214.379 34.297V34.545H220.827V34.297C220.827 33.243 220.537 32.4163 219.959 31.817C219.401 31.2177 218.626 30.918 217.634 30.918Z" fill="#212120"/>
</svg>
