<svg width="386" height="64" viewBox="0 0 386 64" fill="none" xmlns="http://www.w3.org/2000/svg">
<path d="M14.855 36.3449H3.24747C2.31718 36.3449 1.61946 36.0489 1.15431 35.4569C0.73145 34.8649 0.52002 34.2306 0.52002 33.554C0.52002 32.8352 0.73145 32.2009 1.15431 31.6511C1.61946 31.0591 2.31718 30.7631 3.24747 30.7631H14.855C15.7853 30.7631 16.483 31.0591 16.9482 31.6511C17.4133 32.2009 17.6459 32.8352 17.6459 33.554C17.6459 34.2306 17.4133 34.8649 16.9482 35.4569C16.483 36.0489 15.7853 36.3449 14.855 36.3449Z" fill="#212120"/>
<path d="M39.3248 36.3449H27.7172C26.7869 36.3449 26.0892 36.0489 25.6241 35.4569C25.2012 34.8649 24.9898 34.2306 24.9898 33.554C24.9898 32.8352 25.2012 32.2009 25.6241 31.6511C26.0892 31.0591 26.7869 30.7631 27.7172 30.7631H39.3248C40.2551 30.7631 40.9528 31.0591 41.4179 31.6511C41.8831 32.2009 42.1157 32.8352 42.1157 33.554C42.1157 34.2306 41.8831 34.8649 41.4179 35.4569C40.9528 36.0489 40.2551 36.3449 39.3248 36.3449Z" fill="#212120"/>
<path d="M65.0631 63.7463C61.4265 61.5051 58.3819 58.7777 55.9293 55.5639C53.519 52.3502 51.7007 48.8616 50.4744 45.0981C49.2904 41.2924 48.6984 37.4443 48.6984 33.554C48.6984 29.6214 49.2904 25.7734 50.4744 22.0099C51.7007 18.2464 53.519 14.7578 55.9293 11.5441C58.3819 8.33036 61.4265 5.60291 65.0631 3.36174C65.2746 3.1926 65.5283 3.10803 65.8243 3.10803C66.2048 3.10803 66.5431 3.23489 66.8391 3.4886C67.1351 3.74232 67.2831 4.03832 67.2831 4.37661C67.2831 4.63033 67.1563 4.88404 66.9026 5.13776C62.7585 8.85894 59.6294 13.2144 57.5151 18.2042C55.443 23.1939 54.407 28.3105 54.407 33.554C54.407 38.7975 55.443 43.9141 57.5151 48.9039C59.6294 53.8513 62.7585 58.2068 66.9026 61.9703C67.1563 62.224 67.2831 62.4777 67.2831 62.7314C67.2831 63.0274 67.1351 63.3023 66.8391 63.556C66.5854 63.852 66.2683 64 65.8877 64C65.5494 64 65.2746 63.9154 65.0631 63.7463Z" fill="#212120"/>
<path d="M108.811 39.7701C107.078 39.7701 105.471 39.4741 103.991 38.8821C102.553 38.2901 101.2 37.5501 99.9313 36.662C98.6627 35.774 97.4153 34.9072 96.189 34.0615C94.9627 33.1734 93.7153 32.4334 92.4467 31.8414C91.1781 31.2494 89.825 30.9534 88.3872 30.9534C87.2032 30.9534 85.9558 31.2283 84.6449 31.778C83.334 32.2854 81.8752 33.1523 80.2683 34.3786C79.7186 34.8015 79.1266 35.0129 78.4923 35.0129C77.7311 35.0129 77.0757 34.738 76.526 34.1883C75.9762 33.5963 75.7014 32.962 75.7014 32.2854C75.7014 31.5666 76.0397 30.9534 76.7163 30.446C78.746 28.8391 80.67 27.7185 82.4883 27.0842C84.3489 26.4499 86.1249 26.1328 87.8164 26.1328C90.0998 26.1328 92.2141 26.5768 94.1593 27.4648C96.1044 28.3105 97.9227 29.3043 99.6142 30.446C101.306 31.5454 102.87 32.5391 104.308 33.4272C105.746 34.2729 107.078 34.6957 108.304 34.6957C109.53 34.6957 110.545 34.6112 111.349 34.442C112.152 34.2729 112.913 33.9769 113.632 33.554C114.351 33.0889 115.133 32.4334 115.979 31.5877C116.486 31.0803 117.057 30.8266 117.691 30.8266C118.41 30.8266 119.023 31.1226 119.531 31.7146C120.038 32.2643 120.292 32.8986 120.292 33.6174C120.292 34.4632 119.933 35.182 119.214 35.774C117.522 37.2118 115.873 38.2478 114.266 38.8821C112.659 39.4741 110.841 39.7701 108.811 39.7701Z" fill="#212120"/>
<path d="M189.113 3.61546H128.601C128.009 3.61546 127.544 3.42517 127.206 3.0446C126.91 2.66402 126.762 2.2623 126.762 1.83944C126.762 1.3743 126.91 0.951437 127.206 0.570862C127.544 0.190287 128.009 0 128.601 0H189.113C189.705 0 190.149 0.190287 190.445 0.570862C190.783 0.909152 190.952 1.31087 190.952 1.77602C190.952 2.24116 190.783 2.66402 190.445 3.0446C190.149 3.42517 189.705 3.61546 189.113 3.61546Z" fill="#212120"/>
<path d="M218.163 54.6125L193.806 12.3687C193.637 12.0727 193.553 11.7767 193.553 11.4807C193.553 11.0155 193.722 10.5927 194.06 10.2121C194.398 9.83152 194.842 9.64123 195.392 9.64123H244.106C244.655 9.64123 245.099 9.83152 245.438 10.2121C245.776 10.5927 245.945 11.0155 245.945 11.4807C245.945 11.7767 245.861 12.0727 245.691 12.3687L221.335 54.6125C220.996 55.2045 220.468 55.5005 219.749 55.5005C219.072 55.5005 218.544 55.2045 218.163 54.6125ZM199.261 13.2567C198.796 13.2567 198.669 13.4893 198.881 13.9544L219.368 49.4113C219.453 49.5804 219.58 49.665 219.749 49.665C219.918 49.665 220.045 49.5804 220.13 49.4113L240.617 13.9544C240.659 13.8698 240.681 13.7641 240.681 13.6373C240.681 13.3835 240.533 13.2567 240.237 13.2567H199.261Z" fill="#212120"/>
<path d="M310.897 3.61546H250.385C249.793 3.61546 249.328 3.42517 248.99 3.0446C248.694 2.66402 248.546 2.2623 248.546 1.83944C248.546 1.3743 248.694 0.951437 248.99 0.570862C249.328 0.190287 249.793 0 250.385 0H310.897C311.489 0 311.933 0.190287 312.229 0.570862C312.567 0.909152 312.736 1.31087 312.736 1.77602C312.736 2.24116 312.567 2.66402 312.229 3.0446C311.933 3.42517 311.489 3.61546 310.897 3.61546Z" fill="#212120"/>
<path d="M313.561 63.7463C313.349 63.9154 313.074 64 312.736 64C312.355 64 312.017 63.8731 311.721 63.6194C311.467 63.3657 311.341 63.0909 311.341 62.7948C311.341 62.4988 311.467 62.224 311.721 61.9703C315.908 58.2068 319.037 53.8513 321.109 48.9039C323.181 43.9141 324.217 38.7975 324.217 33.554C324.217 28.3105 323.181 23.1939 321.109 18.2042C319.037 13.2144 315.908 8.85894 311.721 5.13776C311.467 4.88404 311.341 4.63033 311.341 4.37661C311.341 4.03832 311.467 3.74232 311.721 3.4886C312.017 3.23489 312.355 3.10803 312.736 3.10803C313.074 3.10803 313.349 3.1926 313.561 3.36174C317.197 5.60291 320.221 8.33036 322.631 11.5441C325.084 14.7578 326.902 18.2464 328.086 22.0099C329.312 25.7734 329.925 29.6214 329.925 33.554C329.925 37.4443 329.312 41.2924 328.086 45.0981C326.902 48.8616 325.084 52.3502 322.631 55.5639C320.221 58.7777 317.197 61.5051 313.561 63.7463Z" fill="#212120"/>
<path d="M374 39.7701C372.266 39.7701 370.659 39.4741 369.179 38.8821C367.741 38.2901 366.388 37.5501 365.12 36.662C363.851 35.774 362.604 34.9072 361.377 34.0615C360.151 33.1734 358.904 32.4334 357.635 31.8414C356.366 31.2494 355.013 30.9534 353.576 30.9534C352.391 30.9534 351.144 31.2283 349.833 31.778C348.522 32.2854 347.063 33.1523 345.457 34.3786C344.907 34.8015 344.315 35.0129 343.681 35.0129C342.919 35.0129 342.264 34.738 341.714 34.1883C341.165 33.5963 340.89 32.962 340.89 32.2854C340.89 31.5666 341.228 30.9534 341.905 30.446C343.934 28.8391 345.858 27.7185 347.677 27.0842C349.537 26.4499 351.313 26.1328 353.005 26.1328C355.288 26.1328 357.402 26.5768 359.348 27.4648C361.293 28.3105 363.111 29.3043 364.802 30.446C366.494 31.5454 368.059 32.5391 369.496 33.4272C370.934 34.2729 372.266 34.6957 373.492 34.6957C374.719 34.6957 375.733 34.6112 376.537 34.442C377.34 34.2729 378.101 33.9769 378.82 33.554C379.539 33.0889 380.321 32.4334 381.167 31.5877C381.675 31.0803 382.245 30.8266 382.88 30.8266C383.599 30.8266 384.212 31.1226 384.719 31.7146C385.227 32.2643 385.48 32.8986 385.48 33.6174C385.48 34.4632 385.121 35.182 384.402 35.774C382.711 37.2118 381.061 38.2478 379.455 38.8821C377.848 39.4741 376.029 39.7701 374 39.7701Z" fill="#212120"/>
</svg>
