<svg width="26" height="26" viewBox="0 0 26 26" fill="none" xmlns="http://www.w3.org/2000/svg">
<path d="M25.4325 21.7469L19.3861 15.7005C20.3287 14.1534 20.8258 12.3762 20.8229 10.5645C20.8229 5.09733 16.0853 0.361328 10.6181 0.361328C9.31823 0.361118 8.03109 0.616984 6.83016 1.11431C5.62924 1.61164 4.53805 2.34068 3.61893 3.2598C2.69981 4.17892 1.97077 5.2701 1.47344 6.47103C0.976115 7.67196 0.720249 8.9591 0.720459 10.2589C0.720459 15.7245 5.45806 20.4621 10.9237 20.4621C12.6756 20.4637 14.3962 19.9975 15.9077 19.1117L21.9861 25.1933C22.2719 25.4784 22.6591 25.6385 23.0629 25.6385C23.4666 25.6385 23.8538 25.4784 24.1397 25.1933L25.6485 23.6845C26.2421 23.0909 26.0261 22.3405 25.4325 21.7469ZM3.76686 10.2589C3.76665 9.35908 3.94371 8.46801 4.28792 7.6366C4.63213 6.80519 5.13675 6.04973 5.77296 5.41336C6.40918 4.777 7.16452 4.2722 7.99585 3.9278C8.82718 3.58339 9.71821 3.40613 10.6181 3.40613C14.4037 3.40613 17.7765 6.77733 17.7765 10.5645C17.776 12.3819 17.0539 14.1247 15.7689 15.4097C14.4838 16.6948 12.741 17.4169 10.9237 17.4173C7.13806 17.4157 3.76686 14.0429 3.76686 10.2589Z" fill="#2E2D2C"/>
</svg>
